<svg xmlns="http://www.w3.org/2000/svg" xmlns:xlink="http://www.w3.org/1999/xlink" viewBox="0 0 500 403.48"><defs><linearGradient id="a" x1="155.84" x2="296.45" y1="89.73" y2="237.84" gradientUnits="userSpaceOnUse"><stop offset="0" stop-color="#0fe"/><stop offset="1" stop-color="#006cd8"/></linearGradient><linearGradient xlink:href="#a" id="d" x1="138.94" x2="495.18" y1="61.96" y2="265.14"/><linearGradient id="e" x1="364.88" x2="162.4" y1="234.98" y2="87.5" gradientUnits="userSpaceOnUse"><stop offset="0" stop-color="#fffaf4"/><stop offset=".08" stop-color="#f6f4f1"/><stop offset=".22" stop-color="#dde5ea"/><stop offset=".4" stop-color="#b6cee0"/><stop offset=".6" stop-color="#7facd0"/><stop offset=".83" stop-color="#3a83bd"/><stop offset="1" stop-color="#0060ae"/></linearGradient><linearGradient id="b" x1="160.18" x2="356.83" y1="72.05" y2="403.68" gradientUnits="userSpaceOnUse"><stop offset="0" stop-color="#ffcd05"/><stop offset="1" stop-color="#f06500"/></linearGradient><linearGradient id="c" x1="190.58" x2="294.31" y1="256.06" y2="259.18" gradientUnits="userSpaceOnUse"><stop offset="0" stop-color="#fff"/><stop offset="1" stop-color="#f06500"/></linearGradient><linearGradient xlink:href="#b" id="f" x1="156.78" x2="353.42" y1="74.07" y2="405.7"/><linearGradient xlink:href="#c" id="g" x1="47.77" x2="127.07" y1="324.07" y2="297.41"/><linearGradient xlink:href="#b" id="h" x1="116.38" x2="186.46" y1="53.71" y2="116.77"/></defs><g style="isolation:isolate"><path fill="url(#a)" d="M148.05 175.62a54.046 54.046 0 0 1-38.15-15.79c24.67-10.55 55.94-22.17 97.52-22.17 15.06 0 28.72 1.21 40.1 2.43 11.27 1.18 22.04 4.57 32.04 10.07l46.22 25.47H148.05Zm216.64 1.24a69.612 69.612 0 0 1-25.41-8.14l-50.97-28.08c-11.72-6.45-24.6-10.53-37.91-11.93-40.81-4.3-92.77-6.87-154.3 21.81-.54.24-1.06.5-1.6.75-70.34 33.31-92.95 10.46-94.5 9.34 2.07 2.57 50.77 75.62 219.2 47.29 128.6-21.63 178.05-17.27 280.26 7.92-6.47-3.31-42.48-28.04-134.77-38.94Z"/><path fill="url(#d)" d="M496.24 194.87c-52.91-26.78-130.07-38.02-130.07-38.02-15.16-42.86-56.37-85.78-132.97-99.92C88.98 30.29 2.27 142.37 1 144.47 38.01 48.78 130.4-3.26 238.15.16c128.4 4.07 235.05 78.73 258.09 194.71Z"/><path fill="url(#e)" d="M233.2 56.93c65.62 12.12 105.25 45.35 124.79 81.57 3.48 6.08 6.38 12.25 8.74 18.43 5.09.77 44.13 6.94 84.38 19.89-39.06-85.87-128.79-145.96-233.3-145.96-86.66 0-163.15 41.33-209.04 104.39C33.08 108.58 113.24 34.77 233.2 56.93Z" style="mix-blend-mode:multiply"/><path fill="url(#b)" d="M312.64 231.14c0 31.61-25.64 57.25-57.25 57.25s-57.25-25.64-57.25-57.25v-.13c7.6-1.06 15.33-2.33 23.16-3.79 35.16-6.59 63.71-10.91 88.7-13.3a57.315 57.315 0 0 1 2.64 17.22Z"/><path fill="url(#c)" d="M287.8 278.32c-47.29 1.17-60.21-30.51-63.57-51.65-.98.18-1.94.36-2.93.54-7.83 1.47-15.56 2.73-23.16 3.79v.13c0 31.61 25.62 57.25 57.25 57.25 12.03 0 23.2-3.72 32.41-10.07Z" style="mix-blend-mode:multiply"/><path fill="url(#f)" d="M500 236.03a191.028 191.028 0 0 1-38.01 64.02c-32.96 36.72-91.19 79.73-190.98 100.37-5.24 1.07-10.61 2.1-16.08 3.06-5.47-.96-10.84-1.99-16.08-3.06-99.79-20.64-158.01-63.65-190.98-100.37C21.88 271.09 5.24 234.83.52 196.21c-.08-.75-.16-4.53-.24-5.23 0 0 44.31 37.54 117.22 43.03v21.66l19.21 2.26c10.45 1.22 19.26 8.14 23.26 17.86.05.11.1.21.13.31 4.07 9.75 2.77 20.92-3.78 29.2l-12 15.15 26.86 26.86 15.15-12c8.29-6.54 19.45-7.85 29.2-3.78.1.03.21.08.31.13 9.73 4 16.64 12.81 17.87 23.26l2.25 19.21h37.93l2.25-19.21c1.24-10.45 8.14-19.26 17.87-23.26.1-.05.21-.1.31-.13 9.75-4.07 20.9-2.77 29.2 3.78l15.15 12 26.86-26.86-12-15.15c-6.54-8.29-7.85-19.45-3.78-29.2.03-.1.08-.2.13-.31 4-9.72 12.81-16.64 23.26-17.86l19.21-2.26v-40.74s50.43-2.16 107.63 21.1Z"/><path fill="url(#g)" d="M76.29 227.15C28.25 214.66.28 190.99.28 190.99c.08.7.16 4.48.24 5.23 4.72 38.61 21.36 74.88 47.35 103.84 32.96 36.72 91.19 79.73 190.98 100.37 5.24 1.07 10.61 2.1 16.08 3.06-143.96-37.5-174.38-123.22-178.65-176.33Z" style="mix-blend-mode:multiply"/><path fill="url(#h)" d="M205.92 112.89s-36.01-33.19-77.27-37.76c0 0 23.45 14.21 32.31 40.1 0 0 13.43-6.23 44.96-2.34Z"/></g></svg>