<svg xmlns="http://www.w3.org/2000/svg" xmlns:xlink="http://www.w3.org/1999/xlink" width="200" viewBox="0 0 108.3 9.92"><defs><linearGradient id="a" x1="3.83" x2="7.29" y1="2.21" y2="5.85" gradientUnits="userSpaceOnUse"><stop offset="0" stop-color="#0fe"/><stop offset="1" stop-color="#006cd8"/></linearGradient><linearGradient xlink:href="#a" id="d" x1="3.42" x2="12.17" y1="1.52" y2="6.52"/><linearGradient id="e" x1="8.97" x2="3.99" y1="5.78" y2="2.15" gradientUnits="userSpaceOnUse"><stop offset="0" stop-color="#fffaf4"/><stop offset=".08" stop-color="#f6f4f1"/><stop offset=".22" stop-color="#dde5ea"/><stop offset=".4" stop-color="#b6cee0"/><stop offset=".6" stop-color="#7facd0"/><stop offset=".83" stop-color="#3a83bd"/><stop offset="1" stop-color="#0060ae"/></linearGradient><linearGradient id="b" x1="3.94" x2="8.77" y1="1.77" y2="9.92" gradientUnits="userSpaceOnUse"><stop offset="0" stop-color="#ffcd05"/><stop offset="1" stop-color="#f06500"/></linearGradient><linearGradient id="c" x1="4.68" x2="7.23" y1="6.29" y2="6.37" gradientUnits="userSpaceOnUse"><stop offset="0" stop-color="#fff"/><stop offset="1" stop-color="#f06500"/></linearGradient><linearGradient xlink:href="#b" id="f" x1="3.85" x2="8.69" y1="1.82" y2="9.97"/><linearGradient xlink:href="#c" id="g" x1="1.17" x2="3.12" y1="7.97" y2="7.31"/><linearGradient xlink:href="#b" id="h" x1="2.86" x2="4.58" y1="1.32" y2="2.87"/><linearGradient xlink:href="#b" id="i" x1="20.27" x2="40.92" y1="-11.82" y2="13.07"/><linearGradient xlink:href="#b" id="j" x1="20.27" x2="40.92" y1="-11.82" y2="13.07"/><linearGradient xlink:href="#b" id="k" x1="20.27" x2="40.92" y1="-11.82" y2="13.07"/><linearGradient xlink:href="#b" id="l" x1="20.27" x2="40.92" y1="-11.82" y2="13.07"/><linearGradient xlink:href="#b" id="m" x1="20.27" x2="40.92" y1="-11.82" y2="13.07"/><linearGradient xlink:href="#b" id="n" x1="20.27" x2="40.92" y1="-11.82" y2="13.07"/><linearGradient xlink:href="#b" id="o" x1="20.27" x2="40.92" y1="-11.82" y2="13.07"/><linearGradient xlink:href="#a" id="p" x1="47.52" x2="93.72" y1="-28" y2="18.2"/><linearGradient xlink:href="#a" id="q" x1="47.52" x2="93.72" y1="-28" y2="18.2"/><linearGradient xlink:href="#a" id="r" x1="47.52" x2="93.72" y1="-28" y2="18.2"/><linearGradient xlink:href="#a" id="s" x1="47.52" x2="93.72" y1="-28" y2="18.2"/><linearGradient xlink:href="#a" id="t" x1="47.52" x2="93.72" y1="-28" y2="18.2"/><linearGradient xlink:href="#a" id="u" x1="47.52" x2="93.72" y1="-28" y2="18.2"/><linearGradient xlink:href="#a" id="v" x1="47.52" x2="93.72" y1="-28" y2="18.2"/><linearGradient xlink:href="#a" id="w" x1="47.52" x2="93.72" y1="-28" y2="18.2"/><linearGradient xlink:href="#a" id="x" x1="47.52" x2="93.72" y1="-28" y2="18.2"/><linearGradient xlink:href="#a" id="y" x1="47.52" x2="93.72" y1="-28" y2="18.2"/></defs><g data-name="Layer 1" style="isolation:isolate"><path fill="url(#a)" d="M3.64 4.32a1.325 1.325 0 0 1-.94-.39c.61-.26 1.37-.54 2.4-.54.37 0 .71.03.99.06s.54.11.79.25l1.14.63H3.64Zm5.32.03c-.22-.03-.43-.09-.62-.2l-1.25-.69c-.29-.16-.6-.26-.93-.29-1-.11-2.28-.17-3.79.54-.01 0-.03.01-.04.02-1.73.82-2.28.26-2.32.23.05.06 1.25 1.86 5.39 1.16 3.16-.53 4.38-.42 6.89.19-.16-.08-1.04-.69-3.31-.96Z"/><path fill="url(#d)" d="M12.2 4.79C10.9 4.13 9 3.86 9 3.86 8.63 2.81 7.61 1.75 5.73 1.4 2.19.74.06 3.5.02 3.55.93 1.2 3.21-.08 5.85 0c3.16.1 5.78 1.94 6.34 4.79Z"/><path fill="url(#e)" d="M5.73 1.4c1.61.3 2.59 1.11 3.07 2.01.09.15.16.3.21.45.13.02 1.08.17 2.07.49C10.12 2.24 7.91.76 5.35.76 3.22.76 1.34 1.77.22 3.32.82 2.66 2.79.85 5.74 1.4Z" style="mix-blend-mode:multiply"/><path fill="url(#b)" d="M7.68 5.68c0 .78-.63 1.41-1.41 1.41s-1.41-.63-1.41-1.41c.19-.03.38-.06.57-.1.86-.16 1.57-.27 2.18-.33.04.13.06.28.06.42Z"/><path fill="url(#c)" d="M7.07 6.84c-1.16.03-1.48-.75-1.56-1.27-.02 0-.05 0-.07.01-.19.04-.38.07-.57.09a1.408 1.408 0 0 0 2.21 1.16Z" style="mix-blend-mode:multiply"/><path fill="url(#f)" d="M12.29 5.8c-.2.58-.52 1.11-.93 1.57-.81.9-2.24 1.96-4.69 2.47-.13.03-.26.05-.4.08-.13-.02-.27-.05-.4-.08-2.45-.51-3.88-1.56-4.69-2.47C.54 6.66.13 5.77.01 4.82v-.13s1.09.92 2.88 1.06v.53l.47.06c.26.03.47.2.57.44.1.24.07.51-.09.72l-.29.37.66.66.37-.29c.2-.16.48-.19.72-.09s.41.31.44.57l.06.47h.93l.06-.47c.03-.26.2-.47.44-.57.24-.1.51-.07.72.09l.37.29.66-.66-.29-.37a.717.717 0 0 1-.09-.72c.1-.24.31-.41.57-.44l.47-.06v-1s1.24-.05 2.65.52Z"/><path fill="url(#g)" d="M1.88 5.58C.69 5.28 0 4.69 0 4.69v.13c.12.95.52 1.84 1.16 2.55.81.9 2.24 1.96 4.69 2.47.13.03.26.05.4.08C2.71 9 1.96 6.89 1.86 5.59Z" style="mix-blend-mode:multiply"/><path fill="url(#h)" d="M5.06 2.77s-.89-.82-1.9-.93c0 0 .58.35.79.99 0 0 .33-.15 1.11-.06Z"/><path fill="#fff" d="M15.04 9.78s-.06-.02-.05-.07l.39-9.5s.02-.06.07-.06h1.56s.06.02.06.06l-.4 6.33L19.31.21s.05-.06.08-.06h1.55s.06.02.04.06l-4.19 9.5s-.05.07-.09.07h-1.67Zm4.49 0s-.05-.02-.04-.07l2.32-9.5s.03-.06.07-.06h4.44s.05.02.04.07l-.38 1.55s-.03.06-.07.06h-2.84l-.52 2.16h2.84s.05.02.04.06l-.36 1.56s-.03.06-.07.06h-2.85l-.59 2.42h2.85s.05.02.04.07l-.38 1.58s-.03.06-.07.06h-4.47Zm5.81 0s-.05-.02-.04-.07l2.32-9.5s.04-.06.08-.06h1.54s.06.02.06.06l-.93 3.76h2.07l.91-3.76s.03-.06.07-.06h1.54s.06.02.06.06l-2.28 9.5s-.04.07-.09.07H29.1s-.06-.02-.05-.07l.99-4.07h-2.07l-.99 4.07s-.04.07-.07.07h-1.56Zm6.58 0s-.06-.02-.05-.07l2.32-9.5s.03-.06.07-.06h1.55s.05.02.04.06l-2.29 9.5s-.04.07-.07.07h-1.56Zm5.35.14c-.51 0-.93-.13-1.28-.38s-.59-.59-.73-1.02c-.14-.43-.14-.9-.01-1.43l1.06-4.31c.12-.51.35-.97.69-1.39.34-.42.74-.76 1.21-1.01S39.17 0 39.68 0s.93.12 1.28.37c.34.25.59.58.72 1 .14.42.14.89.02 1.4l-.15.64s-.03.06-.07.06h-1.55s-.05-.02-.04-.06l.15-.64c.07-.3.04-.57-.11-.79-.14-.22-.36-.33-.66-.33-.33 0-.61.11-.84.34-.23.23-.38.49-.45.78l-1.05 4.31c-.08.34-.05.62.1.83.15.21.36.32.65.32s.57-.12.83-.35c.26-.23.42-.5.49-.8l.15-.63s.03-.06.07-.06h1.56s.05.02.04.06l-.15.63c-.13.53-.37 1-.71 1.43-.35.42-.76.76-1.22 1.02-.47.25-.95.38-1.46.38Zm3.81-.14s-.05-.02-.04-.07L43.36.22s.04-.07.09-.07h1.54s.06.02.05.07l-1.92 7.86h2.85s.06.02.05.07l-.38 1.56s-.04.07-.09.07h-4.47Zm5.49 0s-.05-.02-.04-.07l2.32-9.5s.03-.06.07-.06h4.44s.05.02.04.07l-.38 1.55s-.03.06-.07.06h-2.84l-.52 2.16h2.84s.05.02.04.06l-.36 1.56s-.03.06-.07.06h-2.85l-.59 2.42h2.85s.05.02.04.07l-.38 1.58s-.03.06-.07.06h-4.47Z"/><path fill="url(#i)" d="M15.04 9.78s-.06-.02-.05-.07l.39-9.5s.02-.06.07-.06h1.56s.06.02.06.06l-.4 6.33L19.31.21s.05-.06.08-.06h1.55s.06.02.04.06l-4.19 9.5s-.05.07-.09.07h-1.67Z"/><path fill="url(#j)" d="M19.53 9.78s-.05-.02-.04-.07l2.32-9.5s.03-.06.07-.06h4.44s.05.02.04.07l-.38 1.55s-.03.06-.07.06h-2.84l-.52 2.16h2.84s.05.02.04.06l-.36 1.56s-.03.06-.07.06h-2.85l-.59 2.42h2.85s.05.02.04.07l-.38 1.58s-.03.06-.07.06h-4.47Z"/><path fill="url(#k)" d="M25.34 9.78s-.05-.02-.04-.07l2.32-9.5s.04-.06.08-.06h1.54s.06.02.06.06l-.93 3.76h2.07l.91-3.76s.03-.06.07-.06h1.54s.06.02.06.06l-2.28 9.5s-.04.07-.09.07H29.1s-.06-.02-.05-.07l.99-4.07h-2.07l-.99 4.07s-.04.07-.07.07h-1.56Z"/><path fill="url(#l)" d="M31.92 9.78s-.06-.02-.05-.07l2.32-9.5s.03-.06.07-.06h1.55s.05.02.04.06l-2.29 9.5s-.04.07-.07.07h-1.56Z"/><path fill="url(#m)" d="M37.27 9.92c-.51 0-.93-.13-1.28-.38s-.59-.59-.73-1.02c-.14-.43-.14-.9-.01-1.43l1.06-4.31c.12-.51.35-.97.69-1.39.34-.42.74-.76 1.21-1.01S39.17 0 39.68 0s.93.12 1.28.37c.34.25.59.58.72 1 .14.42.14.89.02 1.4l-.15.64s-.03.06-.07.06h-1.55s-.05-.02-.04-.06l.15-.64c.07-.3.04-.57-.11-.79-.14-.22-.36-.33-.66-.33-.33 0-.61.11-.84.34-.23.23-.38.49-.45.78l-1.05 4.31c-.08.34-.05.62.1.83.15.21.36.32.65.32s.57-.12.83-.35c.26-.23.42-.5.49-.8l.15-.63s.03-.06.07-.06h1.56s.05.02.04.06l-.15.63c-.13.53-.37 1-.71 1.43-.35.42-.76.76-1.22 1.02-.47.25-.95.38-1.46.38Z"/><path fill="url(#n)" d="M41.08 9.78s-.05-.02-.04-.07L43.36.22s.04-.07.09-.07h1.54s.06.02.05.07l-1.92 7.86h2.85s.06.02.05.07l-.38 1.56s-.04.07-.09.07h-4.47Z"/><path fill="url(#o)" d="M46.57 9.78s-.05-.02-.04-.07l2.32-9.5s.03-.06.07-.06h4.44s.05.02.04.07l-.38 1.55s-.03.06-.07.06h-2.84l-.52 2.16h2.84s.05.02.04.06l-.36 1.56s-.03.06-.07.06h-2.85l-.59 2.42h2.85s.05.02.04.07l-.38 1.58s-.03.06-.07.06h-4.47Z"/><path fill="#fff" d="M52.75 9.78s-.06-.02-.05-.07l2.32-9.5s.03-.06.07-.06h1.55s.05.02.04.06l-2.29 9.5s-.04.07-.07.07h-1.56Zm2.96 0c-.07 0-.1-.03-.09-.1L57.89.26c.02-.07.06-.11.14-.11h1.24l1.02 5.45L61.52.26c.02-.07.07-.11.15-.11h1.37c.06 0 .07.04.06.11l-2.27 9.43c-.01.06-.04.08-.09.08h-1.22l-1.16-5.09-1.11 4.98c-.02.07-.07.11-.15.11h-1.38Zm8.61.14c-.5 0-.92-.13-1.27-.38s-.59-.59-.74-1.01c-.14-.42-.15-.88-.03-1.39l.15-.64s.04-.07.09-.07h1.55s.05.02.04.07l-.15.64c-.07.31-.04.57.12.78.15.22.37.33.65.33s.56-.11.81-.33c.26-.22.42-.48.49-.78.08-.34-.07-.64-.45-.88-.13-.08-.33-.21-.6-.39-.27-.17-.53-.34-.77-.5-.44-.29-.72-.67-.86-1.11-.14-.45-.14-.95 0-1.51.13-.52.36-.98.71-1.39.35-.41.76-.74 1.23-.98s.94-.36 1.42-.36.91.12 1.26.37.6.57.74.98c.14.41.16.87.03 1.38l-.28 1.13s-.03.06-.07.06h-1.55s-.05-.02-.04-.06l.26-1.13c.08-.32.04-.58-.11-.79-.16-.2-.37-.31-.65-.31s-.56.11-.81.33c-.26.22-.42.47-.49.77-.07.3-.07.56 0 .76.08.2.27.4.56.58.04.03.12.08.24.14.12.07.24.15.38.24.13.09.26.16.36.23.11.06.18.11.2.12.4.26.69.57.86.95.18.37.2.83.07 1.38-.13.53-.37 1-.71 1.42-.35.42-.75.75-1.22 1-.47.24-.95.37-1.45.37Zm3.78-.14s-.06-.02-.05-.07l2.33-9.5s.03-.06.07-.06h2.65c.85 0 1.46.26 1.83.77s.44 1.22.23 2.1c-.16.66-.43 1.22-.8 1.7-.37.48-.8.85-1.28 1.11-.48.26-.96.39-1.45.39h-1.05l-.85 3.49s-.04.07-.08.07H68.1Zm2.89-5.23h1.05c.3 0 .58-.14.87-.42.28-.28.48-.65.59-1.1.09-.36.06-.65-.08-.89-.14-.23-.38-.34-.72-.34h-1.05l-.66 2.75Zm3.42 5.23s-.05-.02-.04-.07l2.32-9.5s.03-.06.07-.06h4.44s.05.02.04.07l-.38 1.55s-.03.06-.07.06h-2.84l-.52 2.16h2.84s.05.02.04.06l-.37 1.56s-.03.06-.07.06h-2.85l-.59 2.42h2.85s.05.02.04.07l-.38 1.58s-.03.06-.07.06H74.4Zm8.04.14c-.51 0-.93-.13-1.28-.38s-.59-.59-.73-1.02c-.14-.43-.14-.9-.01-1.43l1.06-4.31c.12-.51.35-.97.69-1.39.33-.42.74-.76 1.21-1.01S84.35 0 84.86 0s.93.12 1.28.37.59.58.73 1c.14.42.14.89.02 1.4l-.15.64s-.03.06-.07.06h-1.55s-.05-.02-.04-.06l.15-.64c.07-.3.04-.57-.11-.79-.14-.22-.36-.33-.66-.33-.33 0-.61.11-.84.34-.23.23-.38.49-.45.78l-1.05 4.31c-.08.34-.05.62.1.83.15.21.36.32.65.32s.57-.12.83-.35.42-.5.49-.8l.15-.63s.03-.06.07-.06h1.56s.05.02.04.06l-.15.63c-.13.53-.37 1-.71 1.43-.35.42-.76.76-1.22 1.02-.47.25-.95.38-1.46.38Zm4.96-.14s-.05-.02-.04-.07l1.91-7.88h-1.8s-.06-.02-.05-.07l.39-1.55s.03-.06.07-.06h5.26s.07.02.06.06l-.38 1.55s-.04.07-.07.07h-1.81l-1.9 7.88s-.03.07-.07.07h-1.56Zm4.22 0s-.06-.02-.05-.07l2.31-9.5s.03-.06.07-.06h1.55s.05.02.04.06l-2.29 9.5s-.03.07-.07.07h-1.56Zm5.36.14c-.5 0-.92-.13-1.27-.38s-.6-.59-.74-1.01c-.15-.42-.16-.88-.04-1.39l1.08-4.38c.12-.51.36-.97.7-1.38.35-.41.76-.75 1.23-1s.96-.37 1.44-.37.92.12 1.27.37a2 2 0 0 1 .73 1c.14.41.15.88.03 1.38l-1.05 4.38c-.12.51-.36.97-.7 1.39-.35.42-.76.76-1.23 1.01s-.96.38-1.46.38Zm.41-1.67c.28 0 .55-.11.81-.34.26-.23.43-.48.5-.77l1.05-4.38c.07-.3.04-.56-.1-.77-.14-.21-.36-.32-.66-.32s-.55.1-.81.31c-.25.21-.42.47-.5.78l-1.06 4.38c-.08.31-.04.57.11.78.15.22.37.33.65.33Zm3.51 1.53c-.07 0-.1-.03-.09-.1l2.27-9.42c.02-.07.06-.11.14-.11h1.24l1.02 5.45 1.23-5.34c.02-.07.07-.11.15-.11h1.37c.06 0 .08.04.06.11l-2.27 9.43c-.01.06-.04.08-.09.08h-1.22l-1.16-5.09-1.11 4.98c-.02.07-.07.11-.15.11h-1.38Z"/><path fill="url(#p)" d="M52.75 9.78s-.06-.02-.05-.07l2.32-9.5s.03-.06.07-.06h1.55s.05.02.04.06l-2.29 9.5s-.04.07-.07.07h-1.56Z"/><path fill="url(#q)" d="M55.71 9.78c-.07 0-.1-.03-.09-.1L57.89.26c.02-.07.06-.11.14-.11h1.24l1.02 5.45L61.52.26c.02-.07.07-.11.15-.11h1.37c.06 0 .07.04.06.11l-2.27 9.43c-.01.06-.04.08-.09.08h-1.22l-1.16-5.09-1.11 4.98c-.02.07-.07.11-.15.11h-1.38Z"/><path fill="url(#r)" d="M64.32 9.92c-.5 0-.92-.13-1.27-.38s-.59-.59-.74-1.01c-.14-.42-.15-.88-.03-1.39l.15-.64s.04-.07.09-.07h1.55s.05.02.04.07l-.15.64c-.07.31-.04.57.12.78.15.22.37.33.65.33s.56-.11.81-.33c.26-.22.42-.48.49-.78.08-.34-.07-.64-.45-.88-.13-.08-.33-.21-.6-.39-.27-.17-.53-.34-.77-.5-.44-.29-.72-.67-.86-1.11-.14-.45-.14-.95 0-1.51.13-.52.36-.98.71-1.39.35-.41.76-.74 1.23-.98s.94-.36 1.42-.36.91.12 1.26.37.6.57.74.98c.14.41.16.87.03 1.38l-.28 1.13s-.03.06-.07.06h-1.55s-.05-.02-.04-.06l.26-1.13c.08-.32.04-.58-.11-.79-.16-.2-.37-.31-.65-.31s-.56.11-.81.33c-.26.22-.42.47-.49.77-.07.3-.07.56 0 .76.08.2.27.4.56.58.04.03.12.08.24.14.12.07.24.15.38.24.13.09.26.16.36.23.11.06.18.11.2.12.4.26.69.57.86.95.18.37.2.83.07 1.38-.13.53-.37 1-.71 1.42-.35.42-.75.75-1.22 1-.47.24-.95.37-1.45.37Z"/><path fill="url(#s)" d="M68.1 9.78s-.06-.02-.05-.07l2.33-9.5s.03-.06.07-.06h2.65c.85 0 1.46.26 1.83.77s.44 1.22.23 2.1c-.16.66-.43 1.22-.8 1.7-.37.48-.8.85-1.28 1.11-.48.26-.96.39-1.45.39h-1.05l-.85 3.49s-.04.07-.08.07H68.1Zm2.89-5.23h1.05c.3 0 .58-.14.87-.42.28-.28.48-.65.59-1.1.09-.36.06-.65-.08-.89-.14-.23-.38-.34-.72-.34h-1.05l-.66 2.75Z"/><path fill="url(#t)" d="M74.41 9.78s-.05-.02-.04-.07l2.32-9.5s.03-.06.07-.06h4.44s.05.02.04.07l-.38 1.55s-.03.06-.07.06h-2.84l-.52 2.16h2.84s.05.02.04.06l-.37 1.56s-.03.06-.07.06h-2.85l-.59 2.42h2.85s.05.02.04.07l-.38 1.58s-.03.06-.07.06H74.4Z"/><path fill="url(#u)" d="M82.45 9.92c-.51 0-.93-.13-1.28-.38s-.59-.59-.73-1.02c-.14-.43-.14-.9-.01-1.43l1.06-4.31c.12-.51.35-.97.69-1.39.33-.42.74-.76 1.21-1.01S84.35 0 84.86 0s.93.12 1.28.37.59.58.73 1c.14.42.14.89.02 1.4l-.15.64s-.03.06-.07.06h-1.55s-.05-.02-.04-.06l.15-.64c.07-.3.04-.57-.11-.79-.14-.22-.36-.33-.66-.33-.33 0-.61.11-.84.34-.23.23-.38.49-.45.78l-1.05 4.31c-.08.34-.05.62.1.83.15.21.36.32.65.32s.57-.12.83-.35.42-.5.49-.8l.15-.63s.03-.06.07-.06h1.56s.05.02.04.06l-.15.63c-.13.53-.37 1-.71 1.43-.35.42-.76.76-1.22 1.02-.47.25-.95.38-1.46.38Z"/><path fill="url(#v)" d="M87.41 9.78s-.05-.02-.04-.07l1.91-7.88h-1.8s-.06-.02-.05-.07l.39-1.55s.03-.06.07-.06h5.26s.07.02.06.06l-.38 1.55s-.04.07-.07.07h-1.81l-1.9 7.88s-.03.07-.07.07h-1.56Z"/><path fill="url(#w)" d="M91.63 9.78s-.06-.02-.05-.07l2.31-9.5s.03-.06.07-.06h1.55s.05.02.04.06l-2.29 9.5s-.03.07-.07.07h-1.56Z"/><path fill="url(#x)" d="M96.99 9.92c-.5 0-.92-.13-1.27-.38s-.6-.59-.74-1.01c-.15-.42-.16-.88-.04-1.39l1.08-4.38c.12-.51.36-.97.7-1.38.35-.41.76-.75 1.23-1s.96-.37 1.44-.37.92.12 1.27.37a2 2 0 0 1 .73 1c.14.41.15.88.03 1.38l-1.05 4.38c-.12.51-.36.97-.7 1.39-.35.42-.76.76-1.23 1.01s-.96.38-1.46.38Zm.41-1.67c.28 0 .55-.11.81-.34.26-.23.43-.48.5-.77l1.05-4.38c.07-.3.04-.56-.1-.77-.14-.21-.36-.32-.66-.32s-.55.1-.81.31c-.25.21-.42.47-.5.78l-1.06 4.38c-.08.31-.04.57.11.78.15.22.37.33.65.33Z"/><path fill="url(#y)" d="M100.91 9.78c-.07 0-.1-.03-.09-.1l2.27-9.42c.02-.07.06-.11.14-.11h1.24l1.02 5.45 1.23-5.34c.02-.07.07-.11.15-.11h1.37c.06 0 .08.04.06.11l-2.27 9.43c-.01.06-.04.08-.09.08h-1.22l-1.16-5.09-1.11 4.98c-.02.07-.07.11-.15.11h-1.38Z"/></g></svg>